<?xml version="1.0" standalone="no"?>
<!DOCTYPE svg PUBLIC "-//W3C//DTD SVG 20010904//EN"
 "http://www.w3.org/TR/2001/REC-SVG-20010904/DTD/svg10.dtd">
<svg version="1.0" xmlns="http://www.w3.org/2000/svg"
 width="752.000000pt" height="752.000000pt" viewBox="0 0 752.000000 752.000000"
 preserveAspectRatio="xMidYMid meet">
<metadata>
Created by potrace 1.11, written by Peter Selinger 2001-2013
</metadata>
<g transform="translate(0.000000,752.000000) scale(0.100000,-0.100000)"
fill="#000000" stroke="none">
<path d="M3579 7396 c-2 -2 -21 -7 -41 -10 -114 -18 -257 -67 -415 -142 -51
-24 -95 -44 -98 -44 -3 0 -11 -5 -18 -11 -7 -5 -55 -34 -107 -62 -133 -74
-136 -76 -220 -138 -164 -123 -275 -283 -306 -444 -10 -51 -11 -54 -14 -57 -7
-9 -22 -178 -25 -291 -2 -60 -6 -111 -9 -114 -3 -3 -36 2 -73 11 -269 65 -590
85 -833 51 -57 -8 -114 -17 -135 -22 -11 -2 -31 -6 -45 -9 -14 -3 -50 -12 -80
-20 -30 -8 -59 -16 -65 -18 -48 -12 -105 -33 -182 -67 -24 -11 -45 -19 -48
-19 -12 0 -167 -97 -220 -138 -90 -69 -191 -179 -216 -236 -7 -14 -16 -26 -21
-26 -4 0 -8 -6 -8 -13 0 -7 -9 -28 -19 -48 -11 -20 -27 -60 -36 -90 -16 -52
-19 -64 -30 -126 -7 -36 -7 -221 0 -253 2 -14 10 -50 16 -80 5 -30 19 -83 30
-117 12 -36 18 -72 14 -84 -4 -12 -51 -66 -104 -120 -151 -154 -163 -170 -222
-304 -53 -123 -61 -413 -16 -646 8 -39 38 -151 47 -174 4 -11 14 -36 21 -55
24 -67 88 -187 125 -236 105 -137 229 -204 430 -229 27 -4 60 -8 74 -10 14 -3
43 -7 65 -10 22 -4 58 -11 80 -17 22 -5 48 -12 57 -13 36 -7 36 -17 1 -73 -44
-68 -265 -366 -275 -370 -5 -2 -8 -8 -8 -13 0 -6 -17 -36 -39 -67 -112 -166
-173 -352 -174 -532 -1 -191 46 -352 150 -511 105 -161 258 -282 448 -355 130
-49 266 -72 422 -69 97 1 103 0 105 -19 0 -12 2 -25 3 -31 2 -5 4 -14 5 -20 1
-5 2 -13 2 -16 -2 -10 36 -146 54 -199 99 -286 299 -469 576 -527 128 -26 459
-23 556 6 18 5 35 10 37 10 45 4 183 54 269 97 117 59 216 131 316 233 146
147 242 294 326 498 l41 102 60 -62 c33 -34 130 -151 216 -259 87 -109 188
-230 225 -271 68 -74 191 -179 218 -185 8 -2 14 -8 14 -13 0 -5 4 -9 10 -9 5
0 31 -13 57 -28 63 -37 208 -95 305 -122 75 -20 90 -23 188 -38 60 -9 281 -9
350 1 69 9 202 45 258 69 117 49 257 168 346 292 42 59 127 196 178 286 14 25
35 63 48 85 82 147 85 150 146 163 175 36 370 197 496 408 75 128 145 316 163
439 4 22 9 54 13 70 9 34 7 238 -2 304 -18 141 -72 255 -163 349 -96 99 -163
200 -163 247 0 7 24 20 53 30 49 16 93 37 314 150 88 45 93 50 145 128 75 114
101 161 166 307 23 52 92 283 92 309 0 10 3 21 7 25 4 4 8 17 10 29 1 12 6 51
10 87 9 74 8 330 -1 375 -3 17 -9 41 -13 55 -3 14 -7 30 -9 35 -9 40 -41 119
-66 167 -42 79 -92 135 -163 180 -33 21 -69 44 -79 51 -43 28 -76 60 -97 93
l-22 35 24 97 c25 100 32 256 15 297 -5 11 -10 26 -12 33 -7 36 -103 203 -150
262 -206 257 -388 410 -543 455 -93 28 -222 34 -386 21 -129 -11 -340 -15
-351 -8 -5 4 -10 66 -10 137 0 115 -5 187 -17 235 -2 8 -7 31 -11 50 -35 160
-147 350 -296 500 -124 124 -187 174 -398 318 l-131 89 -68 -23 c-69 -24 -119
-25 -493 -12 -49 2 -140 -12 -175 -27 -35 -14 -38 -13 -103 19 -37 19 -83 38
-102 42 -19 4 -42 10 -50 12 -20 6 -216 13 -221 8z m201 -162 c36 -9 91 -27
123 -41 l58 -26 102 17 c56 10 116 20 132 22 17 3 53 9 80 14 128 24 294 31
380 17 81 -13 206 -68 270 -119 6 -5 46 -35 90 -67 165 -122 372 -367 465
-551 l33 -65 -6 -127 c-3 -71 -8 -132 -11 -136 -5 -9 -18 -160 -18 -219 0 -39
-3 -44 -58 -82 -127 -89 -260 -244 -381 -443 -58 -97 -73 -123 -133 -231 -40
-73 -51 -92 -56 -97 -3 -3 -14 -23 -25 -45 -11 -22 -27 -51 -36 -65 -177 -271
-185 -282 -199 -260 -10 15 -6 209 4 250 23 89 7 271 -26 291 -7 5 -39 7 -70
5 -72 -4 -93 -23 -148 -135 -22 -44 -41 -81 -43 -81 -2 0 -18 5 -35 11 -47 16
-78 73 -98 182 -19 98 -80 165 -133 146 -123 -47 -163 -154 -137 -374 10 -92
16 -144 22 -218 6 -69 6 -69 -18 -62 -20 7 -93 57 -108 75 -10 13 -47 24 -85
26 -22 1 -43 3 -47 3 -3 1 -12 22 -18 49 -25 103 -30 128 -36 152 -26 119
-100 220 -175 240 -46 13 -66 -1 -106 -68 -50 -84 -37 -192 48 -417 22 -60 42
-114 43 -120 2 -5 12 -41 23 -80 12 -38 25 -90 29 -115 7 -49 8 -159 1 -167
-3 -2 -26 36 -53 84 -50 92 -224 439 -224 448 0 11 -223 465 -273 555 -46 83
-95 161 -152 240 -79 111 -94 128 -197 234 l-88 89 5 196 c2 108 6 212 9 231
3 19 8 56 11 83 3 26 14 74 24 107 11 33 17 60 15 60 -2 0 7 19 20 43 24 43
78 84 407 302 143 95 312 186 369 200 3 0 21 6 41 13 38 13 63 19 114 29 17 2
31 6 33 7 10 10 189 2 242 -10z m-1730 -1221 c19 -6 37 -10 40 -10 19 -1 135
-39 180 -61 61 -28 149 -83 195 -122 48 -41 155 -152 184 -190 14 -19 28 -37
31 -40 3 -3 31 -43 61 -90 78 -120 143 -246 239 -465 45 -104 92 -210 103
-235 11 -25 20 -49 22 -55 1 -5 12 -32 23 -58 12 -27 22 -51 22 -53 0 -3 13
-32 29 -65 17 -32 28 -59 25 -59 -17 0 -94 65 -235 200 -55 52 -105 100 -112
105 -6 6 -35 29 -63 53 -29 23 -57 42 -63 42 -6 0 -11 3 -11 8 0 8 -81 51
-142 76 -30 12 -40 12 -50 3 -7 -7 -25 -22 -40 -33 l-26 -20 19 -58 c38 -113
97 -184 260 -315 166 -134 227 -204 253 -289 l7 -22 -58 21 c-63 24 -166 78
-171 91 -2 4 -8 8 -14 8 -5 0 -35 15 -66 33 -134 78 -313 131 -343 100 -4 -4
-21 -34 -38 -67 -28 -55 -29 -61 -16 -90 8 -17 20 -38 27 -47 21 -24 105 -79
122 -79 9 0 16 -4 16 -10 0 -5 6 -10 14 -10 11 0 14 -15 15 -61 0 -77 22 -117
81 -146 25 -12 38 -23 30 -23 -8 -1 -24 -3 -35 -6 -11 -2 -71 -6 -134 -9 -135
-6 -187 -18 -223 -52 -67 -63 -41 -118 102 -215 96 -64 116 -85 139 -139 l21
-48 223 0 c122 0 228 0 235 0 21 -1 4 -19 -36 -38 -31 -15 -57 -17 -167 -14
-252 9 -289 7 -318 -11 -30 -20 -44 -64 -51 -154 -6 -96 -11 -101 -108 -104
-106 -3 -157 -6 -238 -14 -36 -3 -90 -8 -120 -11 -80 -8 -139 -14 -190 -20
-78 -9 -153 -17 -210 -21 -30 -2 -75 -6 -100 -9 -141 -18 -542 -12 -660 9
-129 23 -251 73 -331 135 -48 37 -125 142 -143 195 -6 17 -14 36 -18 41 -9 15
-34 111 -43 165 -22 133 -22 429 -1 535 2 11 7 43 10 70 17 121 14 116 96 195
83 79 176 201 217 286 24 48 25 52 10 85 -79 175 -105 374 -71 530 29 131 118
274 227 368 61 52 167 124 167 114 0 -4 4 -3 8 3 12 20 195 93 273 110 114 25
209 41 232 39 15 0 27 1 27 4 0 3 10 6 23 7 51 2 212 16 215 19 7 7 390 -4
422 -12z m4203 -92 c15 -6 27 -8 27 -5 0 3 6 2 13 -3 6 -4 20 -9 31 -10 32 -5
144 -61 209 -104 54 -37 225 -200 267 -254 60 -79 118 -153 133 -169 9 -11 17
-25 17 -30 1 -6 4 -29 7 -51 9 -52 9 -228 0 -285 -4 -25 -13 -68 -21 -95 -16
-63 -14 -77 19 -125 32 -46 72 -83 156 -145 98 -71 177 -158 209 -228 33 -73
44 -110 67 -232 8 -43 8 -169 0 -247 -23 -222 -125 -485 -274 -706 -59 -88
-85 -117 -116 -134 -38 -19 -133 -55 -167 -63 -157 -36 -181 -39 -385 -39
-205 -1 -233 2 -505 49 -19 3 -53 11 -75 17 -22 6 -47 11 -55 12 -26 4 -77 17
-255 66 -60 17 -121 35 -135 40 -14 5 -59 18 -100 30 -41 12 -84 26 -95 31
-11 4 -103 36 -205 69 -102 34 -192 64 -200 67 -8 4 -22 8 -30 9 -8 1 -30 8
-47 15 -27 11 -41 11 -80 0 -27 -7 -57 -16 -68 -19 l-20 -5 20 23 c11 13 43
33 71 46 82 36 134 43 399 48 110 3 200 5 200 6 0 1 16 3 35 5 135 13 226 58
274 136 15 24 15 28 -5 53 -58 73 -188 82 -399 26 -88 -23 -162 -36 -195 -34
-16 1 -40 2 -52 3 -13 0 -23 7 -23 15 0 19 40 67 51 61 5 -4 9 -2 9 2 0 10 97
39 159 48 60 9 132 33 155 54 10 9 30 43 45 76 15 33 41 80 56 105 42 65 61
97 100 172 l35 67 -53 25 c-83 40 -121 33 -302 -55 -116 -56 -209 -88 -222
-76 -7 8 51 80 120 150 39 40 109 120 168 195 20 25 69 138 69 159 0 11 -14
33 -31 47 -35 30 -29 28 -94 31 -76 4 -104 -12 -149 -88 -21 -37 -45 -72 -54
-79 -8 -7 -43 -14 -78 -15 -109 -3 -185 -60 -304 -228 -55 -78 -164 -195 -181
-195 -15 0 -10 37 9 68 9 16 35 49 57 74 22 25 49 57 60 72 11 16 25 33 30 40
19 21 144 213 156 239 7 15 15 27 19 27 4 0 13 14 20 30 7 17 16 30 21 30 5 0
9 5 9 10 0 21 380 615 409 640 3 3 26 32 51 65 67 90 296 315 370 363 43 28
77 42 100 43 19 0 42 2 50 4 8 2 28 6 44 9 15 3 56 14 90 25 33 11 79 25 101
30 50 11 221 6 258 -8z m-2169 -734 c11 -23 21 -46 22 -52 11 -39 14 -68 15
-122 1 -49 -3 -68 -21 -92 -26 -37 -60 -58 -61 -39 -1 27 -10 89 -19 135 -12
67 -7 187 8 206 19 23 35 13 56 -36z m-588 -112 c39 -80 54 -149 60 -275 6
-114 6 -115 49 -185 108 -173 119 -271 38 -335 l-28 -22 -12 64 c-24 122 -56
253 -66 266 -5 6 -6 12 -2 12 4 0 3 6 -2 13 -6 6 -9 20 -8 30 2 9 0 17 -4 17
-4 0 -14 26 -21 57 -7 31 -16 64 -20 73 -20 37 -68 255 -76 343 l-6 59 36 -33
c20 -18 48 -56 62 -84z m1007 -110 c3 -65 -22 -208 -47 -267 -9 -21 -17 -41
-17 -45 -2 -11 -17 -47 -60 -140 -37 -81 -55 -106 -44 -60 3 12 7 36 9 52 2
17 9 51 14 78 5 26 7 47 4 47 -2 0 1 7 8 15 7 9 10 18 7 21 -3 3 -1 18 5 33 5
14 11 35 13 46 3 19 26 124 43 195 5 19 9 38 10 43 9 65 16 104 20 111 10 17
33 -67 35 -129z m-1803 -147 c25 -12 48 -22 52 -22 4 -1 37 -23 72 -50 69 -52
130 -117 231 -246 33 -43 75 -96 93 -119 31 -38 32 -41 12 -41 -38 0 -83 31
-175 120 -49 48 -130 118 -180 156 -130 100 -147 118 -166 174 -19 60 -12 63
61 28z m1398 -161 c14 -29 17 -75 8 -127 -9 -50 -39 -130 -48 -130 -4 0 -15
12 -25 26 -22 34 -26 171 -6 237 14 47 15 48 36 34 12 -8 28 -26 35 -40z
m1056 -13 c7 -19 -69 -159 -109 -200 -6 -7 -22 -25 -36 -40 -41 -49 -112 -101
-179 -133 -36 -17 -71 -31 -78 -31 -17 0 46 77 122 149 141 135 206 206 206
227 0 31 64 55 74 28z m-2565 -265 c91 -29 178 -79 239 -137 40 -37 86 -101
79 -108 -11 -11 -230 47 -252 67 -5 5 -15 9 -22 9 -45 0 -225 153 -209 178 7
12 118 6 165 -9z m1602 -16 c6 -16 13 -41 15 -58 2 -16 6 -47 9 -67 l5 -37
-37 3 c-58 5 -93 25 -93 54 0 28 30 82 45 82 7 0 18 11 25 25 17 31 18 31 31
-2z m1162 -133 c-31 -53 -126 -146 -191 -188 -63 -41 -158 -78 -223 -88 -74
-11 -169 -15 -169 -7 1 16 144 120 198 144 17 7 32 17 32 21 0 5 5 8 11 8 5 0
34 11 62 24 49 23 115 49 237 94 30 11 56 20 58 21 2 1 -5 -13 -15 -29z
m-1227 -220 c1 -30 -4 -66 -11 -80 -18 -34 -64 -77 -98 -89 -26 -10 -29 -9
-42 22 -38 91 33 213 120 205 29 -3 30 -4 31 -58z m514 -10 c0 -20 -11 -39
-37 -65 -20 -19 -42 -35 -50 -35 -7 0 -13 -5 -13 -12 0 -6 -3 -8 -7 -5 -3 4
-11 3 -17 -2 -6 -5 -26 -12 -45 -16 -33 -7 -34 -7 -27 21 11 41 29 58 97 89
33 15 63 33 66 41 10 26 33 15 33 -16z m-811 -4 c29 -22 49 -89 46 -151 -4
-93 -12 -115 -44 -115 -32 0 -68 31 -77 65 -10 40 4 188 21 215 6 10 31 4 54
-14z m-256 -29 c29 -19 51 -49 62 -85 5 -19 1 -25 -27 -37 -80 -33 -158 16
-158 100 0 42 73 55 123 22z m-1078 -91 c36 -6 125 -33 198 -59 35 -12 22 -30
-36 -49 -60 -20 -132 -15 -289 22 -32 7 -58 16 -58 20 0 30 87 81 130 75 8 -1
33 -5 55 -9z m1705 -155 c0 -29 -39 -80 -62 -82 -7 0 -22 -2 -33 -5 -11 -2
-37 -7 -58 -10 -36 -6 -37 -5 -34 24 8 66 54 99 145 101 40 1 42 0 42 -28z
m-583 -23 c7 -8 15 -24 17 -35 4 -17 -2 -23 -33 -31 -48 -12 -83 -8 -116 14
-33 22 -29 45 14 65 38 18 93 11 118 -13z m-946 -39 c33 -53 -42 -90 -110 -54
-26 13 -41 33 -41 55 0 20 139 18 151 -1z m2758 -1 c11 -7 21 -16 21 -20 0
-10 -60 -58 -73 -59 -7 0 -21 -3 -32 -6 -32 -9 -387 -6 -396 4 -13 13 16 43
42 44 13 0 45 0 72 -1 26 -1 84 10 130 23 45 14 91 28 102 30 35 8 112 -1 134
-15z m-1722 -174 c-9 -52 -43 -117 -82 -155 -19 -19 -38 -34 -42 -35 -4 0 -17
-4 -28 -8 -43 -17 -45 -16 -45 16 0 76 82 186 155 207 47 14 48 13 42 -25z
m-257 -9 c0 -25 -73 -96 -89 -86 -21 14 -16 59 9 81 28 24 80 27 80 5z m516 0
c28 -27 81 -189 65 -200 -15 -8 -84 17 -108 40 -26 23 -52 111 -45 151 2 17
10 21 40 20 20 -1 42 -6 48 -11z m-1082 -109 c-8 -20 -64 -49 -119 -61 -76
-16 -210 -9 -254 15 -42 22 114 55 270 57 81 1 107 -2 103 -11z m912 -117 c28
-55 6 -141 -39 -155 -52 -17 -69 84 -28 164 19 37 24 42 37 31 9 -7 22 -25 30
-40z m-776 -1 c0 -38 -85 -118 -159 -151 -25 -11 -121 -39 -212 -63 -184 -47
-266 -81 -310 -131 -35 -40 -36 -62 -7 -114 28 -50 89 -81 144 -74 83 11 132
29 313 120 60 30 119 55 131 55 l21 0 -23 -41 c-13 -23 -83 -101 -155 -174
-73 -73 -133 -138 -133 -145 0 -22 23 -80 32 -80 4 0 8 -6 8 -12 0 -7 13 -22
27 -32 39 -29 106 -26 170 7 59 30 215 181 288 277 27 36 53 67 57 68 4 2 8
10 8 17 0 7 3 15 8 17 4 2 43 54 87 117 57 81 81 109 84 96 6 -35 -21 -127
-58 -199 -61 -117 -104 -191 -113 -194 -4 -2 -8 -8 -8 -14 0 -6 -27 -48 -60
-94 -109 -153 -128 -214 -89 -284 54 -95 103 -87 214 34 92 102 117 114 179
82 62 -31 80 -20 131 80 25 48 78 94 89 76 3 -5 -1 -27 -9 -50 -13 -38 -23
-78 -30 -127 -2 -11 -6 -36 -10 -55 -12 -65 -6 -357 9 -436 25 -129 25 -535 0
-575 -2 -4 -6 -24 -10 -45 -3 -22 -10 -46 -14 -54 -4 -8 -8 -19 -9 -25 -6 -60
-85 -228 -160 -340 -65 -99 -220 -252 -321 -317 -75 -49 -166 -101 -180 -103
-3 0 -36 -13 -75 -27 -70 -27 -154 -50 -230 -64 -22 -4 -110 -7 -195 -8 -123
-1 -169 3 -225 18 -142 38 -257 112 -346 220 -27 34 -54 66 -59 73 -6 7 -10
15 -10 18 0 3 -11 23 -25 44 -34 54 -99 209 -130 311 -14 47 -29 92 -32 100
-4 8 -7 19 -7 24 -1 4 -69 9 -152 10 -83 2 -155 5 -160 9 -6 3 -23 8 -37 11
-53 9 -172 50 -185 63 -7 7 -20 13 -28 13 -25 0 -146 85 -207 146 -155 154
-230 346 -228 581 1 129 22 235 69 353 38 96 129 260 144 260 4 0 8 6 8 13 0
7 14 27 30 45 16 18 30 35 30 38 0 16 258 277 327 331 41 32 42 33 180 38 76
3 154 7 173 9 19 3 67 8 105 11 63 5 103 10 269 30 27 3 52 8 56 10 3 2 28 6
56 9 27 3 59 7 70 10 12 2 37 7 57 10 136 22 541 119 727 175 87 26 100 26
100 -1z m2366 -174 c76 -20 155 -40 174 -44 48 -11 63 -15 160 -40 47 -12 92
-23 100 -25 8 -2 33 -8 56 -14 22 -6 63 -15 90 -21 27 -5 92 -19 144 -30 52
-12 106 -23 120 -26 14 -3 35 -7 48 -9 104 -22 125 -26 162 -31 19 -3 46 -6
60 -7 37 -4 53 -17 93 -78 20 -31 47 -67 60 -80 12 -14 29 -34 37 -46 8 -12
40 -54 71 -95 83 -109 140 -226 157 -323 4 -22 6 -98 5 -170 -1 -125 -9 -170
-57 -335 -3 -8 -16 -39 -30 -67 -14 -29 -26 -55 -26 -58 0 -11 -86 -144 -123
-190 -65 -80 -165 -171 -190 -172 -21 0 -57 -6 -119 -19 -15 -3 -31 -6 -35 -6
-13 -1 -136 -45 -165 -58 -18 -9 -29 -23 -33 -44 -21 -109 -42 -181 -76 -252
-52 -112 -90 -165 -184 -260 -156 -159 -366 -264 -598 -301 -55 -9 -269 -10
-327 -1 -244 36 -433 131 -611 308 -133 132 -339 381 -339 410 0 5 -3 10 -8
10 -4 0 -12 8 -17 19 -66 124 -85 166 -103 226 -12 39 -23 81 -26 95 -8 45
-37 153 -61 230 -28 90 -56 196 -60 230 -24 180 -23 269 1 365 17 67 85 145
127 145 21 0 82 -37 124 -77 26 -23 82 -52 115 -58 25 -5 80 17 106 42 30 29
22 82 -38 260 -20 61 -36 122 -35 135 1 12 3 33 4 46 1 28 21 28 79 0 55 -28
110 -82 170 -168 109 -155 188 -215 297 -226 84 -9 107 24 98 137 -11 143 -5
162 58 195 23 12 32 10 88 -16 73 -35 104 -32 131 12 24 40 18 82 -25 171 -25
51 -31 73 -23 78 7 4 15 6 18 5 3 -2 30 -7 60 -11 30 -4 66 -9 80 -11 14 -1
41 2 62 8 l36 11 0 76 c-1 88 -18 137 -53 153 -27 12 -32 24 -12 31 24 10 45
7 183 -29z m-2091 -46 c-9 -28 -38 -67 -98 -131 -36 -39 -45 -45 -51 -32 -14
39 -5 65 42 113 69 72 121 96 107 50z m1806 -13 c22 -7 45 -35 54 -63 7 -23 5
-23 -38 -19 -82 9 -148 54 -134 92 4 10 17 11 54 4 26 -5 55 -12 64 -14z
m-2256 -32 c-88 -85 -165 -134 -250 -158 -74 -22 -155 -37 -155 -29 0 14 48
86 78 117 32 33 56 47 147 88 11 5 36 11 55 14 19 3 35 7 37 8 1 1 32 4 70 5
l68 3 -50 -48z m1311 -24 c31 -58 43 -113 23 -107 -24 8 -67 81 -77 131 -9 46
-9 47 11 34 11 -7 30 -33 43 -58z m-198 -21 c26 -43 79 -220 88 -295 3 -32 8
-60 9 -63 2 -3 7 -33 10 -65 4 -33 9 -68 11 -79 2 -10 6 -49 10 -87 6 -66 6
-68 -15 -62 -40 10 -82 84 -95 168 -19 120 -24 170 -31 313 -3 65 -7 137 -10
160 -2 23 -2 42 0 42 2 0 12 -15 23 -32z m-155 -36 c50 -55 69 -203 53 -402
-5 -50 -5 -50 -19 -44 -31 11 -54 70 -64 164 -10 91 -5 300 7 300 4 0 14 -8
23 -18z m686 -16 c46 -24 111 -99 98 -112 -8 -8 -103 50 -139 84 -51 47 -28
63 41 28z m-18 -211 c27 -27 78 -93 113 -145 36 -52 69 -99 74 -105 18 -22 22
-33 10 -31 -95 19 -172 65 -226 138 -38 50 -87 148 -75 148 3 0 1 6 -5 13 -5
6 -13 32 -17 56 l-7 45 42 -34 c24 -19 65 -57 91 -85z m-1426 53 c-27 -122
-148 -238 -249 -238 -66 0 -68 6 -21 69 73 96 161 166 240 192 34 12 37 10 30
-23z m541 -53 c-7 -64 -28 -123 -71 -201 -33 -58 -55 -80 -69 -67 -15 16 -4
83 23 133 46 86 91 180 90 188 -1 4 -1 14 0 22 1 12 5 10 17 -5 11 -14 14 -34
10 -70z m-208 -123 c-8 -85 -77 -191 -159 -240 -52 -32 -61 -29 -54 15 8 54
45 128 99 201 26 35 54 79 63 98 l17 34 19 -30 c14 -22 18 -43 15 -78z"/>
</g>
</svg>
